Radio-Canada-Light-slant-12.ufo
<glyph name="quotedbl" format="1">
  <advance width="341"/>
  <unicode hex="0022"/>
  <outline>
    <contour>
      <point x="223.04072440241592" y="720.0" type="line"/>
      <point x="187.27828083501106" y="500.0" type="line"/>
      <point x="232.27828083501106" y="500.0" type="line"/>
      <point x="289.0407244024159" y="720.0" type="line"/>
    </contour>
    <contour>
      <point x="358.0407244024159" y="720.0" type="line"/>
      <point x="322.27828083501106" y="500.0" type="line"/>
      <point x="367.27828083501106" y="500.0" type="line"/>
      <point x="424.0407244024159" y="720.0" type="line"/>
    </contour>
  </outline>
</glyph>
<glyph name="numbersign" format="1">
  <advance width="652"/>
  <unicode hex="0023"/>
  <outline>
    <contour>
      <point x="119.63687795070464" y="210.0" type="line"/>
      <point x="568.6368779507046" y="210.0" type="line"/>
      <point x="580.1149322808858" y="264.0" type="line"/>
      <point x="131.11493228088585" y="264.0" type="line"/>
    </contour>
    <contour>
      <point x="110.0" y="0.0" type="line"/>
      <point x="168.0" y="0.0" type="line"/>
      <point x="483.66402755231525" y="690.0" type="line"/>
      <point x="425.66402755231525" y="690.0" type="line"/>
    </contour>
    <contour>
      <point x="218.54909527142942" y="426.0" type="line"/>
      <point x="667.5490952714295" y="426.0" type="line"/>
      <point x="679.0271496016106" y="480.0" type="line"/>
      <point x="230.02714960161063" y="480.0" type="line"/>
    </contour>
    <contour>
      <point x="315.0" y="0.0" type="line"/>
      <point x="373.0" y="0.0" type="line"/>
      <point x="688.6640275523152" y="690.0" type="line"/>
      <point x="630.6640275523152" y="690.0" type="line"/>
    </contour>
  </outline>
</glyph>
<glyph name="dollar" format="1">
  <advance width="660"/>
  <unicode hex="0024"/>
  <outline>
    <contour>
      <point x="103.70497742696195" y="88.0" type="line"/>
      <point x="151.52647060342056" y="26.0"/>
      <point x="225.2995475066398" y="-8.0"/>
      <point x="328.29954750663984" y="-8.0" type="curve"/>
      <point x="475.29954750663984" y="-8.0"/>
      <point x="584.4538461935615" y="68.0"/>
      <point x="607.6225114155939" y="177.0" type="curve"/>
      <point x="626.5400454042259" y="266.0"/>
      <point x="576.4190047211274" y="336.0"/>
      <point x="426.2593893662986" y="387.0" type="curve" smooth="yes"/>
      <point x="306.97420839476945" y="428.0"/>
      <point x="279.0513577382303" y="466.0"/>
      <point x="290.95452519175154" y="522.0" type="curve"/>
      <point x="304.983258261973" y="588.0"/>
      <point x="378.8864257154943" y="644.0"/>
      <point x="480.8864257154943" y="644.0" type="curve"/>
      <point x="553.8864257154943" y="644.0"/>
      <point x="598.9348419887336" y="616.0"/>
      <point x="630.4325795219328" y="576.0" type="curve"/>
      <point x="678.2101813587537" y="622.0" type="line"/>
      <point x="637.4128963189148" y="670.0"/>
      <point x="579.3644800456755" y="698.0"/>
      <point x="492.36448004567546" y="698.0" type="curve"/>
      <point x="357.36448004567546" y="698.0"/>
      <point x="251.7222854270636" y="615.0"/>
      <point x="231.3168555067415" y="519.0" type="curve"/>
      <point x="213.88721744979966" y="437.0"/>
      <point x="254.34638031126838" y="378.0"/>
      <point x="390.3562219127773" y="331.0" type="curve" smooth="yes"/>
      <point x="531.9409503909462" y="282.0"/>
      <point x="558.5256788691152" y="233.0"/>
      <point x="545.5597286072438" y="172.0" type="curve"/>
      <point x="530.4682127286723" y="101.0"/>
      <point x="455.777601836821" y="46.0"/>
      <point x="339.777601836821" y="46.0" type="curve"/>
      <point x="250.77760183682102" y="46.0"/>
      <point x="192.57941181026172" y="78.0"/>
      <point x="152.8449095787729" y="131.0" type="curve"/>
    </contour>
    <contour>
      <point x="292.7443438329978" y="-100.0" type="line"/>
      <point x="348.7443438329978" y="-100.0" type="line"/>
      <point x="443.1194572144876" y="344.0" type="line"/>
      <point x="390.945475324548" y="362.0" type="line"/>
    </contour>
    <contour>
      <point x="390.945475324548" y="362.0" type="line"/>
      <point x="443.1194572144876" y="344.0" type="line"/>
      <point x="537.9196837193175" y="790.0" type="line"/>
      <point x="481.9196837193175" y="790.0" type="line"/>
    </contour>
  </outline>
</glyph>
<glyph name="percent" format="1">
  <advance width="871"/>
  <unicode hex="0025"/>
  <outline>
    <contour>
      <point x="193.2926473701218" y="533.0" type="curve" smooth="yes"/>
      <point x="171.82443464144956" y="432.0"/>
      <point x="227.22081469456816" y="368.0"/>
      <point x="308.22081469456816" y="368.0" type="curve" smooth="yes"/>
      <point x="389.22081469456816" y="368.0"/>
      <point x="471.82443464144956" y="432.0"/>
      <point x="493.2926473701218" y="533.0" type="curve" smooth="yes"/>
      <point x="514.7608600987941" y="634.0"/>
      <point x="459.36448004567546" y="698.0"/>
      <point x="378.36448004567546" y="698.0" type="curve" smooth="yes"/>
      <point x="297.36448004567546" y="698.0"/>
      <point x="214.76086009879404" y="634.0"/>
    </contour>
    <contour>
      <point x="249.2926473701218" y="533.0" type="curve" smooth="yes"/>
      <point x="264.5967198103634" y="605.0"/>
      <point x="315.3115388388343" y="646.0"/>
      <point x="367.3115388388343" y="646.0" type="curve" smooth="yes"/>
      <point x="418.3115388388343" y="646.0"/>
      <point x="452.5967198103634" y="605.0"/>
      <point x="437.2926473701218" y="533.0" type="curve" smooth="yes"/>
      <point x="421.9885749298802" y="461.0"/>
      <point x="370.2737559014093" y="420.0"/>
      <point x="319.2737559014093" y="420.0" type="curve" smooth="yes"/>
      <point x="268.2737559014093" y="420.0"/>
      <point x="233.9885749298802" y="461.0"/>
    </contour>
    <contour>
      <point x="198.0" y="0.0" type="line"/>
      <point x="263.0" y="0.0" type="line"/>
      <point x="829.6640275523152" y="690.0" type="line"/>
      <point x="764.6640275523152" y="690.0" type="line"/>
    </contour>
    <contour>
      <point x="534.3713801821934" y="157.0" type="curve" smooth="yes"/>
      <point x="512.9031674535213" y="56.0"/>
      <point x="568.2995475066398" y="-8.0"/>
      <point x="649.2995475066398" y="-8.0" type="curve" smooth="yes"/>
      <point x="730.2995475066398" y="-8.0"/>
      <point x="812.9031674535213" y="56.0"/>
      <point x="834.3713801821934" y="157.0" type="curve" smooth="yes"/>
      <point x="855.8395929108657" y="258.0"/>
      <point x="800.4432128577471" y="322.0"/>
      <point x="719.4432128577471" y="322.0" type="curve" smooth="yes"/>
      <point x="638.4432128577471" y="322.0"/>
      <point x="555.8395929108657" y="258.0"/>
    </contour>
    <contour>
      <point x="590.3713801821934" y="157.0" type="curve" smooth="yes"/>
      <point x="605.675452622435" y="229.0"/>
      <point x="656.390271650906" y="270.0"/>
      <point x="708.390271650906" y="270.0" type="curve" smooth="yes"/>
      <point x="759.390271650906" y="270.0"/>
      <point x="793.675452622435" y="229.0"/>
      <point x="778.3713801821934" y="157.0" type="curve" smooth="yes"/>
      <point x="763.0673077419519" y="85.0"/>
      <point x="711.352488713481" y="44.0"/>
      <point x="660.352488713481" y="44.0" type="curve" smooth="yes"/>
      <point x="609.352488713481" y="44.0"/>
      <point x="575.0673077419519" y="85.0"/>
    </contour>
  </outline>
</glyph>
<glyph name="quotesingle" format="1">
  <advance width="206"/>
  <unicode hex="0027"/>
  <outline>
    <contour>
      <point x="223.04072440241592" y="720.0" type="line"/>
      <point x="187.27828083501106" y="500.0" type="line"/>
      <point x="232.27828083501106" y="500.0" type="line"/>
      <point x="289.0407244024159" y="720.0" type="line"/>
    </contour>
  </outline>
</glyph>
<glyph name="parenleft" format="1">
  <advance width="330"/>
  <unicode hex="0028"/>
  <outline>
    <contour>
      <point x="146.96515852756593" y="268.0" type="curve" smooth="yes"/>
      <point x="99.77760183682102" y="46.0"/>
      <point x="163.83133477796758" y="-109.0"/>
      <point x="268.32454737756495" y="-229.0" type="curve"/>
      <point x="303.5514704743457" y="-195.0" type="line"/>
      <point x="213.14524881971815" y="-84.0"/>
      <point x="160.4538461935615" y="68.0"/>
      <point x="202.96515852756593" y="268.0" type="curve" smooth="yes"/>
      <point x="245.47647086157036" y="468.0"/>
      <point x="362.5725116737437" y="619.0"/>
      <point x="500.16629001911616" y="730.0" type="curve"/>
      <point x="479.3932131158969" y="764.0" type="line"/>
      <point x="323.8864257154943" y="644.0"/>
      <point x="194.15271521831085" y="490.0"/>
    </contour>
  </outline>
</glyph>
<glyph name="parenright" format="1">
  <advance width="330"/>
  <unicode hex="0029"/>
  <outline>
    <contour>
      <point x="-56.448529525654315" y="-195.0" type="curve"/>
      <point x="-35.67545262243507" y="-229.0" type="line"/>
      <point x="119.83133477796758" y="-109.0"/>
      <point x="249.77760183682102" y="46.0"/>
      <point x="296.9651585275659" y="268.0" type="curve" smooth="yes"/>
      <point x="344.15271521831085" y="490.0"/>
      <point x="279.8864257154943" y="644.0"/>
      <point x="175.3932131158969" y="764.0" type="curve"/>
      <point x="140.16629001911616" y="730.0" type="line"/>
      <point x="230.5725116737437" y="619.0"/>
      <point x="283.47647086157036" y="468.0"/>
      <point x="240.96515852756593" y="268.0" type="curve" smooth="yes"/>
      <point x="198.4538461935615" y="68.0"/>
      <point x="81.14524881971815" y="-84.0"/>
    </contour>
  </outline>
</glyph>
<glyph name="asterisk" format="1">
  <advance width="607"/>
  <unicode hex="002A"/>
  <outline>
    <contour>
      <point x="188.71776049346184" y="535.0" type="line"/>
      <point x="370.6648192866207" y="483.0" type="line"/>
      <point x="207.44321285774714" y="322.0" type="line"/>
      <point x="253.15350695261625" y="283.0" type="line"/>
      <point x="399.28812243652004" y="453.0" type="line"/>
      <point x="473.1535069526163" y="283.0" type="line"/>
      <point x="535.4432128577471" y="322.0" type="line"/>
      <point x="441.6648192866207" y="483.0" type="line"/>
      <point x="645.7177604934618" y="535.0" type="line"/>
      <point x="638.1088238786732" y="598.0" type="line"/>
      <point x="439.4424211234417" y="529.0" type="line"/>
      <point x="489.0407244024159" y="720.0" type="line"/>
      <point x="423.0407244024159" y="720.0" type="line"/>
      <point x="392.4424211234417" y="529.0" type="line"/>
      <point x="223.10882387867323" y="598.0" type="line"/>
    </contour>
  </outline>
</glyph>
<glyph name="plus" format="1">
  <advance width="660"/>
  <unicode hex="002B"/>
  <outline>
    <contour>
      <point x="164.90237571921583" y="263.0" type="line"/>
      <point x="606.9023757192158" y="263.0" type="line"/>
      <point x="618.380430049397" y="317.0" type="line"/>
      <point x="176.38043004939703" y="317.0" type="line"/>
    </contour>
    <contour>
      <point x="316.87895931690156" y="70.0" type="line"/>
      <point x="372.87895931690156" y="70.0" type="line"/>
      <point x="466.4038464517113" y="510.0" type="line"/>
      <point x="410.4038464517113" y="510.0" type="line"/>
    </contour>
  </outline>
</glyph>
<glyph name="comma" format="1">
  <advance width="216"/>
  <unicode hex="002C"/>
  <outline>
    <contour>
      <point x="35.51742073621703" y="-134.0" type="line"/>
      <point x="75.51742073621703" y="-134.0" type="line"/>
      <point x="137.1739818899396" y="-18.0" type="line" smooth="yes"/>
      <point x="147.0" y="0.0"/>
      <point x="154.40090498672035" y="16.0"/>
      <point x="158.01436653511072" y="33.0" type="curve" smooth="yes"/>
      <point x="163.96595026187134" y="61.0"/>
      <point x="150.2170814952718" y="81.0"/>
      <point x="125.2170814952718" y="81.0" type="curve" smooth="yes"/>
      <point x="101.2170814952718" y="81.0"/>
      <point x="77.96595026187134" y="61.0"/>
      <point x="72.65203622012079" y="36.0" type="curve" smooth="yes"/>
      <point x="68.18834842505034" y="15.0"/>
      <point x="77.21255656167003" y="1.0"/>
      <point x="91.93721719164989" y="-5.0" type="curve"/>
    </contour>
  </outline>
</glyph>
<glyph name="period" format="1">
  <advance width="216"/>
  <unicode hex="002E"/>
  <outline>
    <contour>
      <point x="72.65203622012079" y="36.0" type="curve" smooth="yes"/>
      <point x="67.55067874004027" y="12.0"/>
      <point x="82.29954750663983" y="-8.0"/>
      <point x="106.29954750663983" y="-8.0" type="curve" smooth="yes"/>
      <point x="131.2995475066398" y="-8.0"/>
      <point x="153.55067874004027" y="12.0"/>
      <point x="158.6520362201208" y="36.0" type="curve" smooth="yes"/>
      <point x="163.96595026187134" y="61.0"/>
      <point x="150.2170814952718" y="81.0"/>
      <point x="125.2170814952718" y="81.0" type="curve" smooth="yes"/>
      <point x="101.2170814952718" y="81.0"/>
      <point x="77.96595026187134" y="61.0"/>
    </contour>
  </outline>
</glyph>
<glyph name="slash" format="1">
  <advance width="308"/>
  <unicode hex="002F"/>
  <outline>
    <contour>
      <point x="-6.376696850100664" y="-30.0" type="line"/>
      <point x="51.623303149899336" y="-30.0" type="line"/>
      <point x="461.0407244024159" y="720.0" type="line"/>
      <point x="403.0407244024159" y="720.0" type="line"/>
    </contour>
  </outline>
</glyph>
<glyph name="zero" format="1">
  <advance width="660"/>
  <unicode hex="0030"/>
  <outline>
    <contour>
      <point x="150.33201377615762" y="345.0" type="curve" smooth="yes"/>
      <point x="99.10588241368231" y="104.0"/>
      <point x="193.2995475066398" y="-8.0"/>
      <point x="328.29954750663984" y="-8.0" type="curve" smooth="yes"/>
      <point x="463.29954750663984" y="-8.0"/>
      <point x="605.1058824136823" y="104.0"/>
      <point x="656.3320137761576" y="345.0" type="curve" smooth="yes"/>
      <point x="707.558145138633" y="586.0"/>
      <point x="613.3644800456755" y="698.0"/>
      <point x="478.36448004567546" y="698.0" type="curve" smooth="yes"/>
      <point x="343.36448004567546" y="698.0"/>
      <point x="201.55814513863297" y="586.0"/>
    </contour>
    <contour>
      <point x="214.33201377615762" y="345.0" type="curve" smooth="yes"/>
      <point x="258.54377860352224" y="553.0"/>
      <point x="358.3954951609189" y="641.0"/>
      <point x="466.2487560304842" y="641.0" type="curve" smooth="yes"/>
      <point x="574.1020169000494" y="641.0"/>
      <point x="636.5437786035222" y="553.0"/>
      <point x="592.3320137761576" y="345.0" type="curve" smooth="yes"/>
      <point x="548.120248948793" y="137.0"/>
      <point x="448.2685323913963" y="49.0"/>
      <point x="340.4152715218311" y="49.0" type="curve" smooth="yes"/>
      <point x="232.56201065226585" y="49.0"/>
      <point x="170.12024894879303" y="137.0"/>
    </contour>
  </outline>
</glyph>
<glyph name="two" format="1">
  <advance width="660"/>
  <unicode hex="0032"/>
  <outline>
    <contour>
      <point x="219.55814513863297" y="586.0" type="curve"/>
      <point x="252.69355235684213" y="549.0" type="line"/>
      <point x="311.5967198103634" y="605.0"/>
      <point x="373.8236429071442" y="639.0"/>
      <point x="438.8236429071442" y="639.0" type="curve"/>
      <point x="542.8236429071442" y="639.0"/>
      <point x="589.7321270285726" y="568.0"/>
      <point x="572.7276020949707" y="488.0" type="curve" smooth="yes"/>
      <point x="561.2495477647896" y="434.0"/>
      <point x="528.8342762429585" y="385.0"/>
      <point x="444.167873487727" y="316.0" type="curve" smooth="yes"/>
      <point x="107.92737559014093" y="42.0" type="line"/>
      <point x="134.0" y="0.0" type="line"/>
      <point x="474.815384774246" y="272.0" type="line" smooth="yes"/>
      <point x="570.9696834611677" y="348.0"/>
      <point x="622.2737559014092" y="420.0"/>
      <point x="636.7276020949707" y="488.0" type="curve" smooth="yes"/>
      <point x="662.0218329337034" y="607.0"/>
      <point x="586.3644800456755" y="698.0"/>
      <point x="456.36448004567546" y="698.0" type="curve"/>
      <point x="371.36448004567546" y="698.0"/>
      <point x="293.2873307022146" y="660.0"/>
    </contour>
    <contour>
      <point x="99.0" y="0.0" type="line"/>
      <point x="543.0" y="0.0" type="line"/>
      <point x="554.4780543301812" y="54.0" type="line"/>
      <point x="156.47805433018118" y="54.0" type="line"/>
      <point x="107.92737559014093" y="42.0" type="line"/>
    </contour>
  </outline>
</glyph>
<glyph name="three" format="1">
  <advance width="660"/>
  <unicode hex="0033"/>
  <outline>
    <contour>
      <point x="105.85475118028185" y="84.0" type="line"/>
      <point x="151.8888009184105" y="23.0"/>
      <point x="216.2995475066398" y="-8.0"/>
      <point x="305.29954750663984" y="-8.0" type="curve"/>
      <point x="436.29954750663984" y="-8.0"/>
      <point x="562.6664027552315" y="69.0"/>
      <point x="590.9364254573445" y="202.0" type="curve"/>
      <point x="618.3562219127773" y="331.0"/>
      <point x="519.1723984213288" y="396.0"/>
      <point x="402.17239842132875" y="396.0" type="curve" smooth="yes"/>
      <point x="353.17239842132875" y="396.0" type="line"/>
      <point x="297.6217196812885" y="384.0" type="line"/>
      <point x="288.90690065281757" y="343.0" type="line"/>
      <point x="367.90690065281757" y="343.0" type="line" smooth="yes"/>
      <point x="475.90690065281757" y="343.0"/>
      <point x="546.0665160076464" y="292.0"/>
      <point x="526.9364254573445" y="202.0" type="curve"/>
      <point x="506.53099553702236" y="106.0"/>
      <point x="419.2027149601611" y="48.0"/>
      <point x="317.2027149601611" y="48.0" type="curve"/>
      <point x="245.20271496016107" y="48.0"/>
      <point x="192.57941181026172" y="78.0"/>
      <point x="158.99468333209282" y="127.0" type="curve"/>
    </contour>
    <contour>
      <point x="239.76086009879404" y="634.0" type="line"/>
      <point x="609.7608600987941" y="634.0" type="line"/>
      <point x="661.7366519621744" y="648.0" type="line"/>
      <point x="670.6640275523152" y="690.0" type="line"/>
      <point x="251.66402755231528" y="690.0" type="line"/>
    </contour>
    <contour>
      <point x="297.6217196812885" y="384.0" type="line"/>
      <point x="372.6217196812885" y="384.0" type="line"/>
      <point x="661.7366519621744" y="648.0" type="line"/>
      <point x="631.6640275523152" y="690.0" type="line"/>
    </contour>
  </outline>
</glyph>
<glyph name="four" format="1">
  <advance width="660"/>
  <unicode hex="0034"/>
  <outline>
    <contour>
      <point x="133.59830327897424" y="191.0" type="line"/>
      <point x="160.6709276888333" y="149.0" type="line"/>
      <point x="604.6640275523152" y="690.0" type="line"/>
      <point x="544.6640275523152" y="690.0" type="line"/>
    </contour>
    <contour>
      <point x="124.6709276888333" y="149.0" type="line"/>
      <point x="598.6709276888333" y="149.0" type="line"/>
      <point x="610.1489820190145" y="203.0" type="line"/>
      <point x="182.14898201901448" y="203.0" type="line"/>
      <point x="133.59830327897424" y="191.0" type="line"/>
    </contour>
    <contour>
      <point x="412.0" y="0.0" type="line"/>
      <point x="474.0" y="0.0" type="line"/>
      <point x="620.6640275523152" y="690.0" type="line"/>
      <point x="558.6640275523152" y="690.0" type="line"/>
    </contour>
  </outline>
</glyph>
<glyph name="five" format="1">
  <advance width="660"/>
  <unicode hex="0035"/>
  <outline>
    <contour>
      <point x="117.85475118028185" y="84.0" type="line"/>
      <point x="163.8888009184105" y="23.0"/>
      <point x="228.2995475066398" y="-8.0"/>
      <point x="317.29954750663984" y="-8.0" type="curve" smooth="yes"/>
      <point x="448.29954750663984" y="-8.0"/>
      <point x="574.2412896318915" y="67.0"/>
      <point x="603.3615385806845" y="204.0" type="curve"/>
      <point x="631.8441178444675" y="338.0"/>
      <point x="541.2737559014092" y="420.0"/>
      <point x="425.2737559014093" y="420.0" type="curve"/>
      <point x="369.2737559014093" y="420.0"/>
      <point x="312.08540747635897" y="405.0"/>
      <point x="255.28359750291827" y="373.0" type="curve"/>
      <point x="235.38043004939703" y="317.0" type="line"/>
      <point x="287.18224002283773" y="349.0"/>
      <point x="341.37058844788805" y="364.0"/>
      <point x="397.37058844788805" y="364.0" type="curve"/>
      <point x="500.37058844788805" y="364.0"/>
      <point x="560.1920816243467" y="302.0"/>
      <point x="539.3615385806845" y="204.0" type="curve"/>
      <point x="518.1058824136823" y="104.0"/>
      <point x="431.2027149601611" y="48.0"/>
      <point x="329.2027149601611" y="48.0" type="curve" smooth="yes"/>
      <point x="257.2027149601611" y="48.0"/>
      <point x="204.57941181026172" y="78.0"/>
      <point x="170.99468333209282" y="127.0" type="curve"/>
    </contour>
    <contour>
      <point x="209.84411784446746" y="338.0" type="line"/>
      <point x="235.38043004939703" y="317.0" type="line"/>
      <point x="263.0566744061375" y="339.0" type="line"/>
      <point x="361.66402755231525" y="690.0" type="line"/>
      <point x="307.66402755231525" y="690.0" type="line"/>
    </contour>
    <contour>
      <point x="315.66402755231525" y="690.0" type="line"/>
      <point x="333.76086009879407" y="634.0" type="line"/>
      <point x="650.7608600987941" y="634.0" type="line"/>
      <point x="662.6640275523152" y="690.0" type="line"/>
    </contour>
  </outline>
</glyph>
<glyph name="nine" format="1">
  <advance width="660"/>
  <unicode hex="0039"/>
  <outline>
    <contour>
      <point x="198.8388011765603" y="465.0" type="curve"/>
      <point x="171.84411784446746" y="338.0"/>
      <point x="251.41447978752566" y="256.0"/>
      <point x="366.4144797875257" y="256.0" type="curve"/>
      <point x="451.4144797875257" y="256.0"/>
      <point x="538.1050906793769" y="311.0"/>
      <point x="585.2835975029183" y="373.0" type="curve"/>
      <point x="599.0997740114697" y="438.0" type="line"/>
      <point x="530.095249077868" y="358.0"/>
      <point x="463.1050906793769" y="311.0"/>
      <point x="382.1050906793769" y="311.0" type="curve"/>
      <point x="299.1050906793769" y="311.0"/>
      <point x="244.7087106262583" y="375.0"/>
      <point x="264.47647086157036" y="468.0" type="curve"/>
      <point x="285.73212702857256" y="568.0"/>
      <point x="364.4613125921542" y="642.0"/>
      <point x="457.4613125921542" y="642.0" type="curve"/>
      <point x="555.4613125921542" y="642.0"/>
      <point x="620.7563351651922" y="554.0"/>
      <point x="581.2208146945682" y="368.0" type="curve" smooth="yes"/>
      <point x="535.0960408121733" y="151.0"/>
      <point x="396.2027149601611" y="48.0"/>
      <point x="289.2027149601611" y="48.0" type="curve"/>
      <point x="244.20271496016107" y="48.0"/>
      <point x="211.75339370020131" y="60.0"/>
      <point x="177.2798643036219" y="86.0" type="curve"/>
      <point x="137.8645927817908" y="37.0" type="line"/>
      <point x="182.27533937002013" y="6.0"/>
      <point x="230.2995475066398" y="-8.0"/>
      <point x="277.29954750663984" y="-8.0" type="curve"/>
      <point x="420.29954750663984" y="-8.0"/>
      <point x="592.3570136470828" y="124.0"/>
      <point x="644.2208146945682" y="368.0" type="curve" smooth="yes"/>
      <point x="690.983258261973" y="588.0"/>
      <point x="600.3644800456755" y="698.0"/>
      <point x="474.36448004567546" y="698.0" type="curve"/>
      <point x="345.36448004567546" y="698.0"/>
      <point x="226.8962673170032" y="597.0"/>
    </contour>
  </outline>
</glyph>
<glyph name="less" format="1">
  <advance width="660"/>
  <unicode hex="003C"/>
  <outline>
    <contour>
      <point x="166.11493228088585" y="264.0" type="line"/>
      <point x="523.1785068235414" y="62.0" type="line"/>
      <point x="536.1444570854127" y="123.0" type="line"/>
      <point x="210.4046381860167" y="303.0" type="line"/>
      <point x="174.19208162434668" y="302.0" type="line"/>
    </contour>
    <contour>
      <point x="167.39027165090596" y="270.0" type="line"/>
      <point x="204.24049789758607" y="274.0" type="line"/>
      <point x="606.7132355598601" y="455.0" type="line"/>
      <point x="620.1042989450715" y="518.0" type="line"/>
      <point x="177.16787348772698" y="316.0" type="line"/>
    </contour>
  </outline>
</glyph>
<glyph name="equal" format="1">
  <advance width="660"/>
  <unicode hex="003D"/>
  <outline>
    <contour>
      <point x="141.52115393551338" y="153.0" type="line"/>
      <point x="583.5211539355134" y="153.0" type="line"/>
      <point x="594.9992082656946" y="207.0" type="line"/>
      <point x="152.99920826569456" y="207.0" type="line"/>
    </contour>
    <contour>
      <point x="188.28359750291827" y="373.0" type="line"/>
      <point x="630.2835975029183" y="373.0" type="line"/>
      <point x="641.7616518330994" y="427.0" type="line"/>
      <point x="199.76165183309945" y="427.0" type="line"/>
    </contour>
  </outline>
</glyph>
<glyph name="greater" format="1">
  <advance width="660"/>
  <unicode hex="003E"/>
  <outline>
    <contour>
      <point x="163.17850682354137" y="62.0" type="line"/>
      <point x="606.1149322808858" y="264.0" type="line"/>
      <point x="614.1920816243467" y="302.0" type="line"/>
      <point x="578.4046381860167" y="303.0" type="line"/>
      <point x="176.1444570854127" y="123.0" type="line"/>
    </contour>
    <contour>
      <point x="246.71323555986007" y="455.0" type="line"/>
      <point x="572.240497897586" y="274.0" type="line"/>
      <point x="607.390271650906" y="270.0" type="line"/>
      <point x="617.167873487727" y="316.0" type="line"/>
      <point x="260.1042989450715" y="518.0" type="line"/>
    </contour>
  </outline>
</glyph>
<glyph name="question" format="1">
  <advance width="498"/>
  <unicode hex="003F"/>
  <outline>
    <contour>
      <point x="159.55814513863297" y="586.0" type="curve"/>
      <point x="194.33122204185221" y="552.0" type="line"/>
      <point x="244.08461574205353" y="612.0"/>
      <point x="302.8236429071442" y="639.0"/>
      <point x="362.8236429071442" y="639.0" type="curve"/>
      <point x="443.8236429071442" y="639.0"/>
      <point x="481.6451360836028" y="577.0"/>
      <point x="468.67918582173144" y="516.0" type="curve"/>
      <point x="457.8388011765603" y="465.0"/>
      <point x="425.3993215181095" y="430.0"/>
      <point x="349.04683280462854" y="386.0" type="curve" smooth="yes"/>
      <point x="293.24502283118784" y="354.0"/>
      <point x="271.59298661106703" y="318.0"/>
      <point x="262.9023757192158" y="263.0" type="curve" smooth="yes"/>
      <point x="249.26018110060397" y="180.0" type="line"/>
      <point x="300.260181100604" y="180.0" type="line"/>
      <point x="318.98936666418564" y="254.0" type="line" smooth="yes"/>
      <point x="329.4916291309865" y="294.0"/>
      <point x="343.2306562960771" y="321.0"/>
      <point x="379.69434409114757" y="342.0" type="curve" smooth="yes"/>
      <point x="470.95984185965875" y="395.0"/>
      <point x="518.86300931318" y="451.0"/>
      <point x="532.6791858217314" y="516.0" type="curve"/>
      <point x="553.7222854270636" y="615.0"/>
      <point x="489.36448004567546" y="698.0"/>
      <point x="380.36448004567546" y="698.0" type="curve"/>
      <point x="300.36448004567546" y="698.0"/>
      <point x="224.2873307022146" y="660.0"/>
    </contour>
    <component base="period" xOffset="127"/>
  </outline>
</glyph>
<glyph name="at" format="1">
  <advance width="967"/>
  <unicode hex="0040"/>
  <outline>
    <contour>
      <point x="133.13914041750553" y="250.0" type="curve" smooth="yes"/>
      <point x="78.72466062997987" y="-6.0"/>
      <point x="203.97658359768573" y="-193.0"/>
      <point x="447.9765835976857" y="-193.0" type="curve" smooth="yes"/>
      <point x="541.9765835976857" y="-193.0"/>
      <point x="635.1407238861163" y="-164.0"/>
      <point x="701.092307612877" y="-136.0" type="curve"/>
      <point x="688.9326922580481" y="-85.0" type="line"/>
      <point x="625.9183257229374" y="-118.0"/>
      <point x="542.0295248045269" y="-141.0"/>
      <point x="459.0295248045269" y="-141.0" type="curve" smooth="yes"/>
      <point x="248.0295248045269" y="-141.0"/>
      <point x="141.10135748008054" y="24.0"/>
      <point x="189.13914041750553" y="250.0" type="curve" smooth="yes"/>
      <point x="239.94015865664082" y="489.0"/>
      <point x="415.3115388388343" y="646.0"/>
      <point x="631.3115388388343" y="646.0" type="curve" smooth="yes"/>
      <point x="813.3115388388343" y="646.0"/>
      <point x="941.5294120684115" y="520.0"/>
      <point x="887.5400454042259" y="266.0" type="curve" smooth="yes"/>
      <point x="849.4924208652919" y="87.0"/>
      <point x="783.352488713481" y="44.0"/>
      <point x="740.352488713481" y="44.0" type="curve"/>
      <point x="698.352488713481" y="44.0"/>
      <point x="676.7919683719317" y="79.0"/>
      <point x="689.120248948793" y="137.0" type="curve"/>
      <point x="738.6459278179082" y="370.0" type="line" smooth="yes"/>
      <point x="745.6602943530189" y="403.0"/>
      <point x="751.1239821480893" y="424.0"/>
      <point x="761.28812243652" y="453.0" type="curve" smooth="yes"/>
      <point x="775.5778283416508" y="492.0" type="line"/>
      <point x="720.5778283416508" y="492.0" type="line"/>
      <point x="682.6845024896386" y="389.0" type="line"/>
      <point x="679.0710409412483" y="372.0" type="line"/>
      <point x="628.2700227021129" y="133.0" type="line"/>
      <point x="628.5695702087528" y="125.0" type="line"/>
      <point x="624.2269230967808" y="34.0"/>
      <point x="661.2995475066398" y="-8.0"/>
      <point x="729.2995475066398" y="-8.0" type="curve"/>
      <point x="797.2995475066398" y="-8.0"/>
      <point x="897.8403846451712" y="51.0"/>
      <point x="943.5400454042259" y="266.0" type="curve" smooth="yes"/>
      <point x="1004.1186654801822" y="551.0"/>
      <point x="851.3644800456755" y="698.0"/>
      <point x="642.3644800456755" y="698.0" type="curve" smooth="yes"/>
      <point x="396.36448004567546" y="698.0"/>
      <point x="192.01730800010165" y="527.0"/>
    </contour>
    <contour>
      <point x="327.5642535408456" y="252.0" type="curve" smooth="yes"/>
      <point x="293.34264711197204" y="91.0"/>
      <point x="356.9757918633803" y="14.0"/>
      <point x="454.9757918633803" y="14.0" type="curve" smooth="yes"/>
      <point x="515.9757918633803" y="14.0"/>
      <point x="590.1157240151913" y="57.0"/>
      <point x="639.4440045920526" y="115.0" type="curve"/>
      <point x="649.6467195522137" y="163.0" type="line"/>
      <point x="597.1058824136823" y="104.0"/>
      <point x="531.6664027552315" y="69.0"/>
      <point x="474.6664027552315" y="69.0" type="curve" smooth="yes"/>
      <point x="408.6664027552315" y="69.0"/>
      <point x="360.9319005237427" y="122.0"/>
      <point x="389.6270363491957" y="257.0" type="curve" smooth="yes"/>
      <point x="418.95984185965875" y="395.0"/>
      <point x="488.2253396281699" y="448.0"/>
      <point x="567.2253396281699" y="448.0" type="curve" smooth="yes"/>
      <point x="639.2253396281699" y="448.0"/>
      <point x="683.9598418596587" y="395.0"/>
      <point x="662.0665160076464" y="292.0" type="curve"/>
      <point x="692.1920816243467" y="302.0" type="line"/>
      <point x="719.3993215181096" y="430.0"/>
      <point x="663.2782808350111" y="500.0"/>
      <point x="574.2782808350111" y="500.0" type="curve" smooth="yes"/>
      <point x="468.27828083501106" y="500.0"/>
      <point x="364.3365387097594" y="425.0"/>
    </contour>
  </outline>
</glyph>
<glyph name="J" format="1">
  <advance width="536"/>
  <unicode hex="004A"/>
  <outline>
    <contour>
      <point x="73.49242086529193" y="87.0" type="line"/>
      <point x="103.31391404175055" y="25.0"/>
      <point x="158.2995475066398" y="-8.0"/>
      <point x="227.2995475066398" y="-8.0" type="curve"/>
      <point x="342.29954750663984" y="-8.0"/>
      <point x="450.4538461935615" y="68.0"/>
      <point x="481.6996607590548" y="215.0" type="curve" smooth="yes"/>
      <point x="582.6640275523152" y="690.0" type="line"/>
      <point x="520.6640275523152" y="690.0" type="line"/>
      <point x="420.7624435674049" y="220.0" type="line" smooth="yes"/>
      <point x="396.53099553702236" y="106.0"/>
      <point x="320.4152715218311" y="49.0"/>
      <point x="239.41527152183107" y="49.0" type="curve"/>
      <point x="187.41527152183107" y="49.0"/>
      <point x="151.5166290019116" y="73.0"/>
      <point x="127.29423083873263" y="119.0" type="curve"/>
    </contour>
    <contour>
      <point x="330.0361994688142" y="640.0" type="line"/>
      <point x="546.0361994688142" y="640.0" type="line"/>
      <point x="556.6640275523152" y="690.0" type="line"/>
      <point x="340.66402755231525" y="690.0" type="line"/>
    </contour>
    <contour>
      <point x="461.66402755231525" y="690.0" type="move" name="top"/>
    </contour>
  </outline>
</glyph>
<glyph name="M" format="1">
  <advance width="830"/>
  <unicode hex="004D"/>
  <outline>
    <contour>
      <point x="110.0" y="0.0" type="line"/>
      <point x="172.0" y="0.0" type="line"/>
      <point x="318.66402755231525" y="690.0" type="line"/>
      <point x="256.66402755231525" y="690.0" type="line"/>
    </contour>
    <contour>
      <point x="290.66402755231525" y="690.0" type="line"/>
      <point x="427.19739829225387" y="175.0" type="line"/>
      <point x="454.19739829225387" y="175.0" type="line"/>
      <point x="470.98936666418564" y="254.0" type="line"/>
      <point x="359.66402755231525" y="690.0" type="line"/>
    </contour>
    <contour>
      <point x="450.19739829225387" y="175.0" type="line"/>
      <point x="477.19739829225387" y="175.0" type="line"/>
      <point x="832.6640275523152" y="690.0" type="line"/>
      <point x="763.6640275523152" y="690.0" type="line"/>
      <point x="466.98936666418564" y="254.0" type="line"/>
    </contour>
    <contour>
      <point x="658.0" y="0.0" type="line"/>
      <point x="720.0" y="0.0" type="line"/>
      <point x="866.6640275523152" y="690.0" type="line"/>
      <point x="804.6640275523152" y="690.0" type="line"/>
    </contour>
  </outline>
</glyph>
<glyph name="O" format="1">
  <advance width="716"/>
  <unicode hex="004F"/>
  <outline>
    <contour>
      <point x="143.33201377615762" y="345.0" type="curve" smooth="yes"/>
      <point x="93.80633490704247" y="112.0"/>
      <point x="198.2995475066398" y="-8.0"/>
      <point x="356.29954750663984" y="-8.0" type="curve" smooth="yes"/>
      <point x="514.2995475066398" y="-8.0"/>
      <point x="669.8063349070425" y="112.0"/>
      <point x="719.3320137761576" y="345.0" type="curve" smooth="yes"/>
      <point x="768.8576926452728" y="578.0"/>
      <point x="664.3644800456755" y="698.0"/>
      <point x="506.36448004567546" y="698.0" type="curve" smooth="yes"/>
      <point x="348.36448004567546" y="698.0"/>
      <point x="192.85769264527278" y="578.0"/>
    </contour>
    <contour>
      <point x="207.33201377615762" y="345.0" type="curve" smooth="yes"/>
      <point x="249.20565642515197" y="542.0"/>
      <point x="369.2487560304842" y="641.0"/>
      <point x="494.2487560304842" y="641.0" type="curve" smooth="yes"/>
      <point x="619.2487560304842" y="641.0"/>
      <point x="697.205656425152" y="542.0"/>
      <point x="655.3320137761576" y="345.0" type="curve" smooth="yes"/>
      <point x="613.4583711271632" y="148.0"/>
      <point x="493.4152715218311" y="49.0"/>
      <point x="368.4152715218311" y="49.0" type="curve" smooth="yes"/>
      <point x="243.41527152183107" y="49.0"/>
      <point x="165.45837112716328" y="148.0"/>
    </contour>
    <contour>
      <point x="504.66402755231525" y="690.0" type="move" name="top"/>
    </contour>
    <contour>
      <point x="358.0" y="0.0" type="move" name="bottom"/>
    </contour>
  </outline>
</glyph>
<glyph name="S" format="1">
  <advance width="615"/>
  <unicode hex="0053"/>
  <outline>
    <contour>
      <point x="78.70497742696195" y="88.0" type="line"/>
      <point x="126.52647060342058" y="26.0"/>
      <point x="200.2995475066398" y="-8.0"/>
      <point x="303.29954750663984" y="-8.0" type="curve"/>
      <point x="450.29954750663984" y="-8.0"/>
      <point x="559.4538461935615" y="68.0"/>
      <point x="582.6225114155939" y="177.0" type="curve"/>
      <point x="601.5400454042259" y="266.0"/>
      <point x="551.4190047211274" y="336.0"/>
      <point x="401.2593893662986" y="387.0" type="curve" smooth="yes"/>
      <point x="281.97420839476945" y="428.0"/>
      <point x="254.0513577382303" y="466.0"/>
      <point x="265.95452519175154" y="522.0" type="curve"/>
      <point x="279.983258261973" y="588.0"/>
      <point x="353.8864257154943" y="644.0"/>
      <point x="455.8864257154943" y="644.0" type="curve"/>
      <point x="528.8864257154943" y="644.0"/>
      <point x="573.9348419887336" y="616.0"/>
      <point x="605.4325795219328" y="576.0" type="curve"/>
      <point x="653.2101813587537" y="622.0" type="line"/>
      <point x="612.4128963189148" y="670.0"/>
      <point x="554.3644800456755" y="698.0"/>
      <point x="467.36448004567546" y="698.0" type="curve"/>
      <point x="332.36448004567546" y="698.0"/>
      <point x="226.7222854270636" y="615.0"/>
      <point x="206.3168555067415" y="519.0" type="curve"/>
      <point x="188.88721744979966" y="437.0"/>
      <point x="229.34638031126838" y="378.0"/>
      <point x="365.3562219127773" y="331.0" type="curve" smooth="yes"/>
      <point x="506.9409503909462" y="282.0"/>
      <point x="533.5256788691152" y="233.0"/>
      <point x="520.5597286072438" y="172.0" type="curve"/>
      <point x="505.46821272867226" y="101.0"/>
      <point x="430.777601836821" y="46.0"/>
      <point x="314.777601836821" y="46.0" type="curve"/>
      <point x="225.77760183682102" y="46.0"/>
      <point x="167.57941181026172" y="78.0"/>
      <point x="127.8449095787729" y="131.0" type="curve"/>
    </contour>
    <contour>
      <point x="465.66402755231525" y="690.0" type="move" name="top"/>
    </contour>
    <contour>
      <point x="305.0" y="0.0" type="move" name="bottom"/>
    </contour>
  </outline>
</glyph>
<glyph name="V" format="1">
  <advance width="582"/>
  <unicode hex="0056"/>
  <outline>
    <contour>
      <point x="166.66402755231528" y="690.0" type="line"/>
      <point x="265.0" y="0.0" type="line"/>
      <point x="309.0" y="0.0" type="line"/>
      <point x="316.565045275151" y="45.0" type="line"/>
      <point x="231.66402755231528" y="690.0" type="line"/>
    </contour>
    <contour>
      <point x="284.565045275151" y="45.0" type="line"/>
      <point x="277.0" y="0.0" type="line"/>
      <point x="317.0" y="0.0" type="line"/>
      <point x="708.6640275523152" y="690.0" type="line"/>
      <point x="646.6640275523152" y="690.0" type="line"/>
    </contour>
  </outline>
</glyph>
<glyph name="X" format="1">
  <advance width="615"/>
  <unicode hex="0058"/>
  <outline>
    <contour>
      <point x="45.0" y="0.0" type="line"/>
      <point x="115.0" y="0.0" type="line"/>
      <point x="380.31764724104687" y="312.0" type="line"/>
      <point x="404.84411784446746" y="338.0" type="line"/>
      <point x="706.6640275523152" y="690.0" type="line"/>
      <point x="636.6640275523152" y="690.0" type="line"/>
      <point x="384.3221721746487" y="392.0" type="line"/>
      <point x="360.0082581328981" y="367.0" type="line"/>
    </contour>
    <contour>
      <point x="201.66402755231528" y="690.0" type="line"/>
      <point x="358.0808825427572" y="325.0" type="line"/>
      <point x="497.0" y="0.0" type="line"/>
      <point x="570.0" y="0.0" type="line"/>
      <point x="407.7714934346084" y="380.0" type="line"/>
      <point x="274.66402755231525" y="690.0" type="line"/>
    </contour>
  </outline>
</glyph>
<glyph name="Y" format="1">
  <advance width="572"/>
  <unicode hex="0059"/>
  <outline>
    <contour>
      <point x="161.66402755231528" y="690.0" type="line"/>
      <point x="319.5158372676062" y="280.0" type="line"/>
      <point x="363.5158372676062" y="280.0" type="line"/>
      <point x="370.2306562960771" y="321.0" type="line"/>
      <point x="233.66402755231528" y="690.0" type="line"/>
    </contour>
    <contour>
      <point x="255.0" y="0.0" type="line"/>
      <point x="317.0" y="0.0" type="line"/>
      <point x="382.8925341177069" y="310.0" type="line"/>
      <point x="320.8925341177069" y="310.0" type="line"/>
    </contour>
    <contour>
      <point x="338.2306562960771" y="321.0" type="line"/>
      <point x="331.5158372676062" y="280.0" type="line"/>
      <point x="371.5158372676062" y="280.0" type="line"/>
      <point x="703.6640275523152" y="690.0" type="line"/>
      <point x="635.6640275523152" y="690.0" type="line"/>
    </contour>
    <contour>
      <point x="432.66402755231525" y="690.0" type="move" name="top"/>
    </contour>
  </outline>
</glyph>
<glyph name="backslash" format="1">
  <advance width="308"/>
  <unicode hex="005C"/>
  <outline>
    <contour>
      <point x="153.04072440241592" y="720.0" type="line"/>
      <point x="243.62330314989933" y="-30.0" type="line"/>
      <point x="301.62330314989936" y="-30.0" type="line"/>
      <point x="211.04072440241592" y="720.0" type="line"/>
    </contour>
  </outline>
</glyph>
<glyph name="bracketright" format="1">
  <advance width="296"/>
  <unicode hex="005D"/>
  <outline>
    <contour>
      <point x="-62.82522637575498" y="-225.0" type="line"/>
      <point x="112.17477362424502" y="-225.0" type="line"/>
      <point x="122.80260170774613" y="-175.0" type="line"/>
      <point x="-52.19739829225387" y="-175.0" type="line"/>
    </contour>
    <contour>
      <point x="135.9151587857157" y="710.0" type="line"/>
      <point x="310.9151587857157" y="710.0" type="line"/>
      <point x="321.5429868692168" y="760.0" type="line"/>
      <point x="146.5429868692168" y="760.0" type="line"/>
    </contour>
    <contour>
      <point x="82.17477362424502" y="-225.0" type="line"/>
      <point x="138.174773624245" y="-225.0" type="line"/>
      <point x="347.5429868692168" y="760.0" type="line"/>
      <point x="291.5429868692168" y="760.0" type="line"/>
    </contour>
  </outline>
</glyph>
<glyph name="underscore" format="1">
  <advance width="402"/>
  <unicode hex="005F"/>
  <outline>
    <contour>
      <point x="-10.627828083501106" y="-50.0" type="line"/>
      <point x="391.37217191649887" y="-50.0" type="line"/>
      <point x="402.0" y="0.0" type="line"/>
      <point x="0.0" y="0.0" type="line"/>
    </contour>
  </outline>
</glyph>
<glyph name="grave" format="1">
  <advance width="600"/>
  <unicode hex="0060"/>
  <outline>
    <contour>
      <point x="328.22907282746627" y="735.0" type="line"/>
      <point x="402.22907282746627" y="735.0" type="line"/>
      <point x="455.34558857696294" y="585.0" type="line"/>
      <point x="400.34558857696294" y="585.0" type="line"/>
    </contour>
    <contour>
      <point x="408.4038464517113" y="510.0" type="move" name="_top"/>
    </contour>
  </outline>
</glyph>
<glyph name="a" format="1">
  <advance width="514"/>
  <unicode hex="0061"/>
  <outline>
    <contour>
      <point x="85.71934396207268" y="121.0" type="curve"/>
      <point x="70.41527152183109" y="49.0"/>
      <point x="113.29954750663983" y="-8.0"/>
      <point x="196.2995475066398" y="-8.0" type="curve"/>
      <point x="263.29954750663984" y="-8.0"/>
      <point x="346.37669685010064" y="30.0"/>
      <point x="397.70497742696193" y="88.0" type="curve"/>
      <point x="408.54536207213306" y="139.0" type="line"/>
      <point x="352.5794118102617" y="78.0"/>
      <point x="278.777601836821" y="46.0"/>
      <point x="217.77760183682102" y="46.0" type="curve"/>
      <point x="159.77760183682102" y="46.0"/>
      <point x="136.2170814952718" y="81.0"/>
      <point x="146.20723989376285" y="128.0" type="curve"/>
      <point x="156.83506797726395" y="178.0"/>
      <point x="203.1633485541252" y="236.0"/>
      <point x="343.7140272941655" y="248.0" type="curve" smooth="yes"/>
      <point x="424.20192322585564" y="255.0" type="line"/>
      <point x="433.12929881599655" y="297.0" type="line"/>
      <point x="346.06651600764644" y="292.0" type="line" smooth="yes"/>
      <point x="178.94095039094623" y="282.0"/>
      <point x="103.99920826569458" y="207.0"/>
    </contour>
    <contour>
      <point x="174.32669710825044" y="472.0" type="curve"/>
      <point x="188.1239821480894" y="424.0" type="line"/>
      <point x="238.65045275150996" y="450.0"/>
      <point x="286.41368805322026" y="463.0"/>
      <point x="334.41368805322026" y="463.0" type="curve"/>
      <point x="411.41368805322026" y="463.0"/>
      <point x="453.91142558641934" y="423.0"/>
      <point x="432.8683259810872" y="324.0" type="curve" smooth="yes"/>
      <point x="388.4440045920525" y="115.0" type="line"/>
      <point x="385.89332585201225" y="103.0" type="line"/>
      <point x="380.0" y="0.0" type="line"/>
      <point x="435.0" y="0.0" type="line"/>
      <point x="437.28970590513086" y="39.0" type="line" smooth="yes"/>
      <point x="439.4538461935615" y="68.0"/>
      <point x="442.917533988632" y="89.0"/>
      <point x="449.9319005237427" y="122.0" type="curve"/>
      <point x="493.50599566609725" y="327.0" type="line" smooth="yes"/>
      <point x="520.5006789981901" y="454.0"/>
      <point x="456.1042989450715" y="518.0"/>
      <point x="350.1042989450715" y="518.0" type="curve"/>
      <point x="296.1042989450715" y="518.0"/>
      <point x="228.06572427334106" y="499.0"/>
    </contour>
    <contour>
      <point x="357.4038464517113" y="510.0" type="move" name="top"/>
    </contour>
    <contour>
      <point x="249.0" y="0.0" type="move" name="bottom"/>
    </contour>
  </outline>
</glyph>
<glyph name="b" format="1">
  <advance width="561"/>
  <unicode hex="0062"/>
  <outline>
    <contour>
      <point x="84.0" y="0.0" type="line"/>
      <point x="139.0" y="0.0" type="line"/>
      <point x="176.89332585201228" y="103.0" type="line"/>
      <point x="180.50678740040266" y="120.0" type="line"/>
      <point x="310.3788465807862" y="731.0" type="line"/>
      <point x="247.40305471740587" y="717.0" type="line"/>
      <point x="120.9319005237427" y="122.0" type="line"/>
      <point x="113.91753398863197" y="89.0"/>
      <point x="108.4538461935615" y="68.0"/>
      <point x="98.28970590513086" y="39.0" type="curve" smooth="yes"/>
    </contour>
    <contour>
      <point x="167.3857467173042" y="190.0" type="line"/>
      <point x="140.17850682354137" y="62.0"/>
      <point x="200.2995475066398" y="-8.0"/>
      <point x="295.29954750663984" y="-8.0" type="curve" smooth="yes"/>
      <point x="406.29954750663984" y="-8.0"/>
      <point x="516.5166290019116" y="73.0"/>
      <point x="556.2647060342058" y="260.0" type="curve" smooth="yes"/>
      <point x="593.4621043264597" y="435.0"/>
      <point x="526.1042989450715" y="518.0"/>
      <point x="423.1042989450715" y="518.0" type="curve" smooth="yes"/>
      <point x="358.1042989450715" y="518.0"/>
      <point x="279.9643667932605" y="475.0"/>
      <point x="228.63608621639924" y="417.0" type="curve"/>
      <point x="218.43337125623816" y="369.0" type="line"/>
      <point x="273.97420839476945" y="428.0"/>
      <point x="342.41368805322026" y="463.0"/>
      <point x="403.41368805322026" y="463.0" type="curve" smooth="yes"/>
      <point x="474.41368805322026" y="463.0"/>
      <point x="525.8728509146889" y="404.0"/>
      <point x="494.20192322585564" y="255.0" type="curve" smooth="yes"/>
      <point x="461.89332585201225" y="103.0"/>
      <point x="387.35248871348097" y="44.0"/>
      <point x="302.35248871348097" y="44.0" type="curve" smooth="yes"/>
      <point x="224.35248871348097" y="44.0"/>
      <point x="175.61798648199215" y="97.0"/>
      <point x="197.51131233400443" y="200.0" type="curve"/>
    </contour>
  </outline>
</glyph>
<glyph name="c" format="1">
  <advance width="493"/>
  <unicode hex="0063"/>
  <outline>
    <contour>
      <point x="114.20192322585564" y="255.0" type="curve"/>
      <point x="77.42963805694181" y="82.0"/>
      <point x="155.2995475066398" y="-8.0"/>
      <point x="277.29954750663984" y="-8.0" type="curve"/>
      <point x="344.29954750663984" y="-8.0"/>
      <point x="409.10135748008054" y="24.0"/>
      <point x="459.3668552485917" y="77.0" type="curve"/>
      <point x="419.3812217837024" y="110.0" type="line"/>
      <point x="383.6664027552315" y="69.0"/>
      <point x="336.2027149601611" y="48.0"/>
      <point x="287.2027149601611" y="48.0" type="curve"/>
      <point x="197.20271496016107" y="48.0"/>
      <point x="144.80633490704247" y="112.0"/>
      <point x="175.20192322585564" y="255.0" type="curve"/>
      <point x="204.95984185965875" y="395.0"/>
      <point x="284.2011314915502" y="462.0"/>
      <point x="375.2011314915502" y="462.0" type="curve"/>
      <point x="423.2011314915502" y="462.0"/>
      <point x="461.16255681981977" y="443.0"/>
      <point x="480.4477377913489" y="402.0" type="curve"/>
      <point x="534.4621043264597" y="435.0" type="line"/>
      <point x="506.94015865664085" y="489.0"/>
      <point x="455.1042989450715" y="518.0"/>
      <point x="389.1042989450715" y="518.0" type="curve"/>
      <point x="267.1042989450715" y="518.0"/>
      <point x="150.3365387097594" y="425.0"/>
    </contour>
    <contour>
      <point x="377.4038464517113" y="510.0" type="move" name="top"/>
    </contour>
    <contour>
      <point x="269.0" y="0.0" type="move" name="bottom"/>
    </contour>
  </outline>
</glyph>
<glyph name="f" format="1">
  <advance width="339"/>
  <unicode hex="0066"/>
  <outline>
    <contour>
      <point x="127.77601836821017" y="460.0" type="line"/>
      <point x="427.7760183682102" y="460.0" type="line"/>
      <point x="438.4038464517113" y="510.0" type="line"/>
      <point x="138.40384645171127" y="510.0" type="line"/>
    </contour>
    <contour>
      <point x="123.0" y="0.0" type="line"/>
      <point x="183.0" y="0.0" type="line"/>
      <point x="304.5823532752527" y="572.0" type="line" smooth="yes"/>
      <point x="320.0989822771643" y="645.0"/>
      <point x="357.2631225655949" y="674.0"/>
      <point x="410.2631225655949" y="674.0" type="curve"/>
      <point x="434.2631225655949" y="674.0"/>
      <point x="455.9877831955748" y="668.0"/>
      <point x="481.0119913321945" y="654.0" type="curve"/>
      <point x="505.63981941569557" y="704.0" type="line"/>
      <point x="484.6156112790759" y="718.0"/>
      <point x="449.7411768957761" y="728.0"/>
      <point x="416.7411768957761" y="728.0" type="curve"/>
      <point x="333.7411768957761" y="728.0"/>
      <point x="266.4756791272649" y="675.0"/>
      <point x="245.22002296026272" y="575.0" type="curve" smooth="yes"/>
    </contour>
  </outline>
</glyph>
<glyph name="g" format="1">
  <advance width="556"/>
  <unicode hex="0067"/>
  <outline>
    <contour>
      <point x="109.20192322585564" y="255.0" type="curve" smooth="yes"/>
      <point x="73.40844790265686" y="86.60493827160494"/>
      <point x="141.48789593169016" y="7.0"/>
      <point x="244.48789593169016" y="7.0" type="curve" smooth="yes"/>
      <point x="309.48789593169016" y="7.0"/>
      <point x="387.4152715218311" y="49.0"/>
      <point x="438.1058824136823" y="104.0" type="curve"/>
      <point x="448.0960408121733" y="151.0" type="line"/>
      <point x="393.1599777002984" y="94.8452380952381"/>
      <point x="325.1785068235414" y="62.0"/>
      <point x="264.1785068235414" y="62.0" type="curve" smooth="yes"/>
      <point x="193.17850682354137" y="62.0"/>
      <point x="141.171983282539" y="118.42487046632124"/>
      <point x="171.26470603420574" y="260.0" type="curve" smooth="yes"/>
      <point x="202.80769683520924" y="408.3981042654028"/>
      <point x="277.0513577382303" y="466.0"/>
      <point x="362.0513577382303" y="466.0" type="curve" smooth="yes"/>
      <point x="440.0513577382303" y="466.0"/>
      <point x="488.7858599697191" y="413.0"/>
      <point x="466.8925341177069" y="310.0" type="curve"/>
      <point x="497.0180997344071" y="320.0" type="line"/>
      <point x="524.2253396281699" y="448.0"/>
      <point x="464.1042989450715" y="518.0"/>
      <point x="369.1042989450715" y="518.0" type="curve" smooth="yes"/>
      <point x="258.1042989450715" y="518.0"/>
      <point x="148.208431656801" y="438.51119402985074"/>
    </contour>
    <contour>
      <point x="53.75418543450675" y="-147.0" type="line"/>
      <point x="95.80260170774613" y="-175.0"/>
      <point x="153.97658359768573" y="-193.0"/>
      <point x="215.97658359768573" y="-193.0" type="curve" smooth="yes"/>
      <point x="330.9765835976857" y="-193.0"/>
      <point x="435.315501375906" y="-120.8360655737705"/>
      <point x="465.25113123340043" y="20.0" type="curve" smooth="yes"/>
      <point x="543.4719459279686" y="388.0" type="line"/>
      <point x="550.4863124630793" y="421.0"/>
      <point x="555.9500002581498" y="442.0"/>
      <point x="566.1141405465804" y="471.0" type="curve" smooth="yes"/>
      <point x="580.4038464517113" y="510.0" type="line"/>
      <point x="525.4038464517113" y="510.0" type="line"/>
      <point x="487.510520599699" y="407.0" type="line"/>
      <point x="483.89705905130864" y="390.0" type="line"/>
      <point x="406.31391404175054" y="25.0" type="line" smooth="yes"/>
      <point x="381.3057555679723" y="-92.65413533834585"/>
      <point x="307.66719448953694" y="-138.0"/>
      <point x="216.66719448953694" y="-138.0" type="curve" smooth="yes"/>
      <point x="165.66719448953694" y="-138.0"/>
      <point x="124.64298635291726" y="-124.0"/>
      <point x="87.38201351800785" y="-97.0" type="curve"/>
    </contour>
    <contour>
      <point x="377.4038464517113" y="510.0" type="move" name="top"/>
    </contour>
  </outline>
</glyph>
<glyph name="j" format="1">
  <advance width="250"/>
  <unicode hex="006A"/>
  <outline>
    <contour>
      <point x="-86.62251141559392" y="-177.0" type="line"/>
      <point x="-68.74807703229413" y="-187.0"/>
      <point x="-42.02341640231427" y="-193.0"/>
      <point x="-20.02341640231427" y="-193.0" type="curve"/>
      <point x="60.97658359768573" y="-193.0"/>
      <point x="126.092307612877" y="-136.0"/>
      <point x="144.79728503983893" y="-48.0" type="curve" smooth="yes"/>
      <point x="263.4038464517113" y="510.0" type="line"/>
      <point x="203.40384645171127" y="510.0" type="line"/>
      <point x="85.00984160150895" y="-47.0" type="line" smooth="yes"/>
      <point x="71.19366509295753" y="-112.0"/>
      <point x="35.667194489536946" y="-138.0"/>
      <point x="-10.332805510463054" y="-138.0" type="curve"/>
      <point x="-29.332805510463054" y="-138.0"/>
      <point x="-46.48257926378297" y="-134.0"/>
      <point x="-62.78212677042279" y="-126.0" type="curve"/>
    </contour>
    <contour>
      <point x="227.1761316206251" y="683.0" type="curve" smooth="yes"/>
      <point x="222.07477414054458" y="659.0"/>
      <point x="236.82364290714415" y="639.0"/>
      <point x="260.8236429071442" y="639.0" type="curve" smooth="yes"/>
      <point x="285.8236429071442" y="639.0"/>
      <point x="308.0747741405446" y="659.0"/>
      <point x="313.17613162062514" y="683.0" type="curve" smooth="yes"/>
      <point x="318.4900456623757" y="708.0"/>
      <point x="304.7411768957761" y="728.0"/>
      <point x="279.7411768957761" y="728.0" type="curve" smooth="yes"/>
      <point x="255.7411768957761" y="728.0"/>
      <point x="232.49004566237568" y="708.0"/>
    </contour>
  </outline>
</glyph>
<glyph name="k" format="1">
  <advance width="498"/>
  <unicode hex="006B"/>
  <outline>
    <contour>
      <point x="95.0" y="0.0" type="line"/>
      <point x="155.0" y="0.0" type="line"/>
      <point x="310.3788465807862" y="731.0" type="line"/>
      <point x="247.40305471740587" y="717.0" type="line"/>
    </contour>
    <contour>
      <point x="188.5355204706241" y="186.0" type="line"/>
      <point x="574.4038464517113" y="510.0" type="line"/>
      <point x="499.4038464517113" y="510.0" type="line"/>
      <point x="204.05214947253575" y="259.0" type="line"/>
    </contour>
    <contour>
      <point x="279.3032807059362" y="279.0" type="line"/>
      <point x="411.0" y="0.0" type="line"/>
      <point x="483.0" y="0.0" type="line"/>
      <point x="327.59298661106703" y="318.0" type="line"/>
    </contour>
  </outline>
</glyph>
<glyph name="n" format="1">
  <advance width="575.0"/>
  <unicode hex="006E"/>
  <outline>
    <contour>
      <point x="192.40384645171127" y="510.0" type="line"/>
      <point x="190.11414054658042" y="471.0" type="line" smooth="yes"/>
      <point x="187.95000025814977" y="442.0"/>
      <point x="184.48631246307932" y="421.0"/>
      <point x="177.4719459279686" y="388.0" type="curve" smooth="yes"/>
      <point x="95.0" y="0.0" type="line"/>
      <point x="155.0" y="0.0" type="line"/>
      <point x="237.89705905130864" y="390.0" type="line"/>
      <point x="241.51052059969902" y="407.0" type="line"/>
      <point x="247.40384645171127" y="510.0" type="line"/>
    </contour>
    <contour>
      <point x="217.7957015712281" y="366.0" type="line"/>
      <point x="274.76165183309945" y="427.0"/>
      <point x="345.41368805322026" y="463.0"/>
      <point x="408.41368805322026" y="463.0" type="curve"/>
      <point x="471.41368805322026" y="463.0"/>
      <point x="514.9114255864193" y="423.0"/>
      <point x="493.0180997344071" y="320.0" type="curve" smooth="yes"/>
      <point x="425.0" y="0.0" type="line"/>
      <point x="485.0" y="0.0" type="line"/>
      <point x="554.0808825427572" y="325.0" type="line" smooth="yes"/>
      <point x="581.28812243652" y="453.0"/>
      <point x="519.1042989450715" y="518.0"/>
      <point x="428.1042989450715" y="518.0" type="curve"/>
      <point x="361.1042989450715" y="518.0"/>
      <point x="280.9643667932605" y="475.0"/>
      <point x="228.63608621639924" y="417.0" type="curve"/>
    </contour>
    <contour>
      <point x="408.4038464517113" y="510.0" type="move" name="top"/>
    </contour>
  </outline>
</glyph>
<glyph name="p" format="1">
  <advance width="561"/>
  <unicode hex="0070"/>
  <outline>
    <contour>
      <point x="192.40384645171127" y="510.0" type="line"/>
      <point x="190.11414054658042" y="471.0" type="line" smooth="yes"/>
      <point x="187.95000025814977" y="442.0"/>
      <point x="184.48631246307932" y="421.0"/>
      <point x="177.4719459279686" y="388.0" type="curve" smooth="yes"/>
      <point x="53.338913912675665" y="-196.0" type="line"/>
      <point x="116.31470577605597" y="-182.0" type="line"/>
      <point x="237.89705905130864" y="390.0" type="line"/>
      <point x="241.51052059969902" y="407.0" type="line"/>
      <point x="247.40384645171127" y="510.0" type="line"/>
    </contour>
    <contour>
      <point x="168.02341640231427" y="193.0" type="line"/>
      <point x="140.81617650855145" y="65.0"/>
      <point x="200.2995475066398" y="-8.0"/>
      <point x="295.29954750663984" y="-8.0" type="curve" smooth="yes"/>
      <point x="406.29954750663984" y="-8.0"/>
      <point x="516.5166290019116" y="73.0"/>
      <point x="556.2647060342058" y="260.0" type="curve" smooth="yes"/>
      <point x="593.4621043264597" y="435.0"/>
      <point x="526.1042989450715" y="518.0"/>
      <point x="423.1042989450715" y="518.0" type="curve" smooth="yes"/>
      <point x="358.1042989450715" y="518.0"/>
      <point x="279.84077128764255" y="475.0"/>
      <point x="228.63608621639924" y="417.0" type="curve"/>
      <point x="217.7957015712281" y="366.0" type="line"/>
      <point x="273.46753418604067" y="427.0"/>
      <point x="342.2666292296908" y="463.0"/>
      <point x="403.41368805322026" y="463.0" type="curve" smooth="yes"/>
      <point x="474.1336880532203" y="463.0"/>
      <point x="525.9093505262888" y="404.17171717171715"/>
      <point x="494.20192322585564" y="255.0" type="curve" smooth="yes"/>
      <point x="461.93468301107026" y="103.1945701357466"/>
      <point x="387.35248871348097" y="44.0"/>
      <point x="302.35248871348097" y="44.0" type="curve" smooth="yes"/>
      <point x="224.35248871348097" y="44.0"/>
      <point x="175.6220741081781" y="97.01923076923076"/>
      <point x="197.51131233400443" y="200.0" type="curve"/>
    </contour>
  </outline>
</glyph>
<glyph name="q" format="1">
  <advance width="556"/>
  <unicode hex="0071"/>
  <outline>
    <contour>
      <point x="108.13914041750553" y="250.0" type="curve" smooth="yes"/>
      <point x="70.94174212525166" y="75.0"/>
      <point x="138.2995475066398" y="-8.0"/>
      <point x="241.2995475066398" y="-8.0" type="curve" smooth="yes"/>
      <point x="306.29954750663984" y="-8.0"/>
      <point x="384.43947965845075" y="35.0"/>
      <point x="435.76776023531204" y="93.0" type="curve"/>
      <point x="445.9704751954731" y="141.0" type="line"/>
      <point x="390.4296380569418" y="82.0"/>
      <point x="321.990158398491" y="47.0"/>
      <point x="260.990158398491" y="47.0" type="curve" smooth="yes"/>
      <point x="189.99015839849105" y="47.0"/>
      <point x="138.53099553702233" y="106.0"/>
      <point x="170.20192322585564" y="255.0" type="curve" smooth="yes"/>
      <point x="202.51052059969902" y="407.0"/>
      <point x="277.0513577382303" y="466.0"/>
      <point x="362.0513577382303" y="466.0" type="curve" smooth="yes"/>
      <point x="440.0513577382303" y="466.0"/>
      <point x="488.7858599697191" y="413.0"/>
      <point x="466.8925341177069" y="310.0" type="curve"/>
      <point x="497.0180997344071" y="320.0" type="line"/>
      <point x="524.2253396281699" y="448.0"/>
      <point x="464.1042989450715" y="518.0"/>
      <point x="369.1042989450715" y="518.0" type="curve" smooth="yes"/>
      <point x="258.1042989450715" y="518.0"/>
      <point x="147.88721744979966" y="437.0"/>
    </contour>
    <contour>
      <point x="359.33891391267565" y="-196.0" type="line"/>
      <point x="422.314705776056" y="-182.0" type="line"/>
      <point x="543.4719459279686" y="388.0" type="line"/>
      <point x="550.4863124630793" y="421.0"/>
      <point x="555.9500002581498" y="442.0"/>
      <point x="566.1141405465804" y="471.0" type="curve" smooth="yes"/>
      <point x="580.4038464517113" y="510.0" type="line"/>
      <point x="525.4038464517113" y="510.0" type="line"/>
      <point x="487.510520599699" y="407.0" type="line"/>
      <point x="483.89705905130864" y="390.0" type="line"/>
    </contour>
  </outline>
</glyph>
<glyph name="r" format="1">
  <advance width="341"/>
  <unicode hex="0072"/>
  <outline>
    <contour>
      <point x="192.40384645171127" y="510.0" type="line"/>
      <point x="190.11414054658042" y="471.0" type="line" smooth="yes"/>
      <point x="187.95000025814977" y="442.0"/>
      <point x="184.48631246307932" y="421.0"/>
      <point x="177.4719459279686" y="388.0" type="curve" smooth="yes"/>
      <point x="95.0" y="0.0" type="line"/>
      <point x="155.0" y="0.0" type="line"/>
      <point x="234.7087106262583" y="375.0" type="line"/>
      <point x="238.32217217464867" y="392.0" type="line"/>
      <point x="247.40384645171127" y="510.0" type="line"/>
    </contour>
    <contour>
      <point x="214.6073531461778" y="351.0" type="line"/>
      <point x="271.69886902474934" y="422.0"/>
      <point x="341.9257921215301" y="456.0"/>
      <point x="407.9257921215301" y="456.0" type="curve"/>
      <point x="421.1042989450715" y="518.0" type="line"/>
      <point x="358.1042989450715" y="518.0"/>
      <point x="281.3894799166005" y="477.0"/>
      <point x="226.29796403802897" y="406.0" type="curve"/>
    </contour>
    <contour>
      <point x="293.4038464517113" y="510.0" type="move" name="top"/>
    </contour>
  </outline>
</glyph>
<glyph name="u" format="1">
  <advance width="569"/>
  <unicode hex="0075"/>
  <outline>
    <contour>
      <point x="129.32296390895408" y="185.0" type="line" smooth="yes"/>
      <point x="102.11572401519126" y="57.0"/>
      <point x="161.2995475066398" y="-8.0"/>
      <point x="250.2995475066398" y="-8.0" type="curve" smooth="yes"/>
      <point x="319.29954750663984" y="-8.0"/>
      <point x="396.43947965845075" y="35.0"/>
      <point x="448.76776023531204" y="93.0" type="curve"/>
      <point x="459.60814488048317" y="144.0" type="line"/>
      <point x="402.6421946186118" y="83.0"/>
      <point x="334.990158398491" y="47.0"/>
      <point x="269.990158398491" y="47.0" type="curve" smooth="yes"/>
      <point x="208.99015839849105" y="47.0"/>
      <point x="168.49242086529193" y="87.0"/>
      <point x="190.3857467173042" y="190.0" type="curve" smooth="yes"/>
      <point x="258.4038464517113" y="510.0" type="line"/>
      <point x="198.40384645171127" y="510.0" type="line"/>
    </contour>
    <contour>
      <point x="430.0" y="0.0" type="line"/>
      <point x="485.0" y="0.0" type="line"/>
      <point x="487.28970590513086" y="39.0" type="line" smooth="yes"/>
      <point x="489.4538461935615" y="68.0"/>
      <point x="492.917533988632" y="89.0"/>
      <point x="499.9319005237427" y="122.0" type="curve" smooth="yes"/>
      <point x="582.4038464517113" y="510.0" type="line"/>
      <point x="522.4038464517113" y="510.0" type="line"/>
      <point x="439.50678740040263" y="120.0" type="line"/>
      <point x="435.89332585201225" y="103.0" type="line"/>
    </contour>
    <contour>
      <point x="389.4038464517113" y="510.0" type="move" name="top"/>
    </contour>
    <contour>
      <point x="281.0" y="0.0" type="move" name="bottom"/>
    </contour>
  </outline>
</glyph>
<glyph name="v" format="1">
  <advance width="466"/>
  <unicode hex="0076"/>
  <outline>
    <contour>
      <point x="123.40384645171129" y="510.0" type="line"/>
      <point x="207.0" y="0.0" type="line"/>
      <point x="253.0" y="0.0" type="line"/>
      <point x="259.07714934346086" y="38.0" type="line"/>
      <point x="188.40384645171127" y="510.0" type="line"/>
    </contour>
    <contour>
      <point x="227.07714934346083" y="38.0" type="line"/>
      <point x="221.0" y="0.0" type="line"/>
      <point x="259.0" y="0.0" type="line"/>
      <point x="559.4038464517113" y="510.0" type="line"/>
      <point x="497.4038464517113" y="510.0" type="line"/>
    </contour>
  </outline>
</glyph>
<glyph name="x" format="1">
  <advance width="500.0"/>
  <unicode hex="0078"/>
  <outline>
    <contour>
      <point x="35.0" y="0.0" type="line"/>
      <point x="103.0" y="0.0" type="line"/>
      <point x="304.25033949909505" y="227.0" type="line"/>
      <point x="326.92658385583553" y="249.0" type="line"/>
      <point x="563.4038464517113" y="510.0" type="line"/>
      <point x="495.4038464517113" y="510.0" type="line"/>
      <point x="307.3418553776666" y="298.0" type="line"/>
      <point x="284.6656110209261" y="276.0" type="line"/>
    </contour>
    <contour>
      <point x="153.40384645171127" y="510.0" type="line"/>
      <point x="282.58846167746526" y="238.0" type="line"/>
      <point x="395.0" y="0.0" type="line"/>
      <point x="465.0" y="0.0" type="line"/>
      <point x="329.00373319929633" y="287.0" type="line"/>
      <point x="223.40384645171127" y="510.0" type="line"/>
    </contour>
  </outline>
</glyph>
<glyph name="bar" format="1">
  <advance width="276"/>
  <unicode hex="007C"/>
  <outline>
    <contour>
      <point x="64.30033924094525" y="-215.0" type="line"/>
      <point x="120.30033924094525" y="-215.0" type="line"/>
      <point x="319.0407244024159" y="720.0" type="line"/>
      <point x="263.0407244024159" y="720.0" type="line"/>
    </contour>
  </outline>
</glyph>
<glyph name="braceright" format="1">
  <advance width="358"/>
  <unicode hex="007D"/>
  <outline>
    <contour>
      <point x="3.5514704743456846" y="-195.0" type="curve"/>
      <point x="6.773868637524664" y="-241.0" type="line"/>
      <point x="124.08778267927522" y="-216.0"/>
      <point x="189.77839357112643" y="-161.0"/>
      <point x="206.7829185047282" y="-81.0" type="curve" smooth="yes"/>
      <point x="226.7632353017103" y="13.0"/>
      <point x="154.17850682354137" y="62.0"/>
      <point x="170.12024894879303" y="137.0" type="curve" smooth="yes"/>
      <point x="179.89785078561405" y="183.0"/>
      <point x="230.25033949909502" y="227.0"/>
      <point x="331.3516969791756" y="251.0" type="curve"/>
      <point x="338.57862007595634" y="285.0" type="line"/>
      <point x="247.67997755603682" y="309.0"/>
      <point x="216.0324662695178" y="353.0"/>
      <point x="225.81006810633883" y="399.0" type="curve" smooth="yes"/>
      <point x="241.75181023159047" y="474.0"/>
      <point x="334.95452519175154" y="522.0"/>
      <point x="354.93484198873364" y="616.0" type="curve" smooth="yes"/>
      <point x="371.9393669223354" y="696.0"/>
      <point x="330.4174212525166" y="750.0"/>
      <point x="222.94389185593718" y="776.0" type="curve"/>
      <point x="200.16629001911616" y="730.0" type="line"/>
      <point x="294.0021497306855" y="701.0"/>
      <point x="308.71244382555466" y="662.0"/>
      <point x="299.14739855040364" y="617.0" type="curve" smooth="yes"/>
      <point x="283.418212986822" y="543.0"/>
      <point x="193.5150455333008" y="487.0"/>
      <point x="175.23518122967886" y="401.0" type="curve"/>
      <point x="163.11945721448762" y="344.0"/>
      <point x="184.70418569265652" y="295.0"/>
      <point x="262.9651585275659" y="268.0" type="curve"/>
      <point x="173.01357480080532" y="240.0"/>
      <point x="130.81085984064424" y="192.0"/>
      <point x="118.69513582545298" y="135.0" type="curve"/>
      <point x="100.41527152183109" y="49.0"/>
      <point x="166.2995475066398" y="-8.0"/>
      <point x="150.57036194305817" y="-82.0" type="curve" smooth="yes"/>
      <point x="141.00531666790718" y="-127.0"/>
      <point x="109.71561076277632" y="-166.0"/>
    </contour>
  </outline>
</glyph>
